# xmcd CD database file
# Copyright (C) 1993-1998 Ti Kan
#
# Track frame offsets:
# 150
# 15977
# 33304
# 50256
# 64808
# 78685
# 96837
# 110639
# 123766
# 140793
# 157145
# 180997
# 198399
# 212801
# 233053
# 245580
# 258857
# 275059
# 287361
# 304538
#
# Disc length: 4194 seconds
# Revision: 0
# Processed by: cddbd v1.4b41PL1 Copyright (c) Steve Scherf et al.
# Submitted via: CDSpectrumPro v3.3.333
#
DISCID=19106014
DTITLE=Foster and Allen - Foster and Allen - Their Greatest Hits (1)
DYEAR=1900
DGENRE=
TTITLE0=I will love you all my life
TTITLE1=Old flames
TTITLE2=Molly my lovely Molly
TTITLE3=Isle of Innisfree
TTITLE4=The stone outside Dan Murphy's door
TTITLE5=Molly darling
TTITLE6=I love you more and more every day
TTITLE7=I can't stop loving you
TTITLE8=Mull of Kintyre
TTITLE9=Maggie
TTITLE10=After the ball
TTITLE11=The mountains of Mourne
TTITLE12=The old threshing mill
TTITLE13=Silver threads among the gold
TTITLE14=Gentle Mother
TTITLE15=Mursheen Durkin
TTITLE16=Come back Paddy Reilly
TTITLE17=Mary of Argyle
TTITLE18=Everything is beautiful
TTITLE19=Jigs - The knights of St Patricks, The Irish washerwoman
EXTD=
EXTT0=
EXTT1=
EXTT2=
EXTT3=
EXTT4=
EXTT5=
EXTT6=
EXTT7=
EXTT8=
EXTT9=
EXTT10=
EXTT11=
EXTT12=
EXTT13=
EXTT14=
EXTT15=
EXTT16=
EXTT17=
EXTT18=
EXTT19=
PLAYORDER=
